# xmcd
#
# Track frame offsets:
#	150
#	11899
#	20945
#	34660
#	44300
#	54560
#	68048
#	74598
#	85098
#	94129
#	102668
#	113580
#	133899
#	143817
#	162540
#	175447
#	188537
#	199354
#	210262
#	219492
#	229259
#	240267
#	253787
#	262149
#	271767
#	283222
#	299869
#
# Disc length: 4198 seconds
#
# Revision: 0
# Processed by: cddbd v1.5.1PL0 Copyright (c) Steve Scherf et al.
# Submitted via: EasyCDDAExtractor 8.0.2.1
#
DISCID=ac10641b
DTITLE=Various Artist - Избранное. Диск 2
DYEAR=2001
DGENRE=Chanson
TTITLE0=Борис Надеждин - Осенний этюд
TTITLE1=Борис Надеждин - Январь
TTITLE2=Борис Надеждин - Обращение к Анне
TTITLE3=Борис Надеждин - Прощальный вальс
TTITLE4=Борис Надеждин - Свидание
TTITLE5=Алексей Розанов - Не я пишу стихи
TTITLE6=Алексей Розанов - Праздник
TTITLE7=Алексей Розанов - Сколько выпало снега...
TTITLE8=Алексей Розанов - Если выйти из вечера...
TTITLE9=Алексей Розанов - Вербное воскресенье
TTITLE10=Александр Быканов - А я по вам соскучился, ребята
TTITLE11=Александр Быканов - Городской романс
TTITLE12=Александр Быканов - Романс старого гусара
TTITLE13=Александр Быканов - Деревенька
TTITLE14=Александр Быканов - Барон Жермон
TTITLE15=ГОНИ-М - Куда ты скачешь, мальчик?
TTITLE16=ГОНИ-М - Тишина
TTITLE17=ГОНИ-М - Годовщина
TTITLE18=ГОНИ-М - Грузинская песня (Туки)
TTITLE19=ГОНИ-М - Русская народная песня (Повянь, бурь-погодушка)
TTITLE20=ГОНИ-М - Цыганская песня (Утро)
TTITLE21=ГОНИ-М - Я смотрю на Москву
TTITLE22=ГОНИ-М - Рыбак
TTITLE23=ГОНИ-М - Зеленоватые глаза
TTITLE24=ГОНИ-М - Персидский марш
TTITLE25=ГОНИ-М - Оранжевый кот
TTITLE26=ГОНИ-М - Театральный эпилог
EXTD=
EXTT0=
EXTT1=
EXTT2=
EXTT3=
EXTT4=
EXTT5=
EXTT6=
EXTT7=
EXTT8=
EXTT9=
EXTT10=
EXTT11=
EXTT12=
EXTT13=
EXTT14=
EXTT15=
EXTT16=
EXTT17=
EXTT18=
EXTT19=
EXTT20=
EXTT21=
EXTT22=
EXTT23=
EXTT24=
EXTT25=
EXTT26=
PLAYORDER=
